<svg xmlns="http://www.w3.org/2000/svg" viewBox="0 0 637.97 560.71" width="18"><g id="Capa_2" data-name="Capa 2"><g id="Capa_1-2" data-name="Capa 1"><path fill="#fff" d="M18.69,486h93.45V542a18.69,18.69,0,0,0,18.69,18.69H619.28A18.69,18.69,0,0,0,638,542V56.07a18.69,18.69,0,0,0-18.69-18.69H525.82V18.69a18.69,18.69,0,0,0-37.38,0V37.38H393.75V18.69a18.7,18.7,0,0,0-37.39,0V37.38H262.91V18.69a18.69,18.69,0,0,0-37.38,0V37.38h-94.7a18.69,18.69,0,0,0-18.69,18.69V168.21C112.14,306,54.9,411.93,6.73,452.9a18.69,18.69,0,0,0,12,33.05Zm581.9,37.38H149.52V486H507.13a18.68,18.68,0,0,0,12-4.33c22.47-18.72,57.27-63.27,81.49-120.34ZM149.52,74.76h76V93.45a18.69,18.69,0,0,0,37.38,0V74.76h93.45V93.45a18.7,18.7,0,0,0,37.39,0V74.76h94.69V93.45a18.69,18.69,0,0,0,37.38,0V74.76h74.77v74.76H149.52Zm-.32,112.13H600.25C596,305.46,550.54,398.74,499.8,448.57H61.21c57.48-73.24,84.91-168.61,88-261.68Z"/></g></g></svg>