<svg xmlns="http://www.w3.org/2000/svg" viewBox="0 0 454.74 387.91" width="20">
<g id="Capa_2" data-name="Capa 2"><g id="Capa_1-2" data-name="Capa 1">
    <path  fill="#fff" d="M432.76,52s-49.31-78.67-149.9-41.09c0,0-29,8.22-55.57,50.09,0,0-38.36-70.84-124.46-59.88,0,0-68.88,4.7-95.5,80.63s27.79,126.8,27.79,126.8l173,166.73s12.57,13.75,19.18,12.52c8.22-1.52,33.66-27.78,33.66-27.78l160.85-155S487.94,148.31,432.76,52ZM405,194C385.13,212.12,316,278,270.08,321.87c-24.75,23.65-42.79,40.92-42.79,40.92L49.21,194S9.29,153.79,22.6,99.78s59.88-76.71,95.88-78.67S194,41.86,215.94,81c0,0,2.74,9.4,11.35,8.61s9.78-3.91,12.91-11.35S286.78,11.88,338.44,21,423,54.2,434.33,112.3C434.33,112.3,435.5,166.07,405,194Z"/></g></g></svg>