<svg xmlns="http://www.w3.org/2000/svg" viewBox="0 0 488.46 488.87" width="18"><g id="Capa_2" data-name="Capa 2"><g id="Capa_1-2" data-name="Capa 1"><path fill="#fff" d="M477.19,63.42s-39.26-40.51-51.84-51.08S405.47,2,405.47,2C374-7.29,351.61,18.63,351.61,18.63L24,347.28,2.83,455.49.56,469.58c-2.26,14.09,3,14.6,3,14.6,8.31,7.8,15.35,3.52,15.35,3.52s92.86-16.1,109-19.88,17.36-7.55,17.36-7.55,311.8-310,325.64-325.38,13.84-21.64,13.84-21.64C496.31,84.81,477.19,63.42,477.19,63.42ZM31.27,456.5l13.33-73,58.13,59.14Zm101.41-24.67-77-76.5L337.77,72.48l78,77.51ZM457.56,107.21l-21.89,22.65-77.26-77,17.36-17.61s13.34-12.33,29.7-2.77l50.58,50.08S464.1,97.14,457.56,107.21Z"/></g></g></svg>