<svg xmlns="http://www.w3.org/2000/svg" viewBox="0 0 493.88 570.64" width="20">
<defs><style>.cls-1{fill:#fff;}</style></defs><g id="Capa_2" data-name="Capa 2"><g id="Capa_1-2" data-name="Capa 1"><path class="cls-1" d="M76.16,395.24s37.93-58.41,103.38-79.55c15.17-4.9,29.35-9.33,42.18-13.25a152.26,152.26,0,1,0-53.42-20c-30,8-101.32,35.26-141.14,118.81-51.36,107.75-14.1,147-14.1,147s14.77,18.46,38.6,21.15,199.72,0,199.72,0,16.11-2.69,14.43-19.47S252.72,532.52,242,532.19l-10.74-.34H58.71s-21.15-.33-20.14-23.49S45.28,437.53,76.16,395.24ZM134.38,153.3a113,113,0,1,1,113,113.05A113,113,0,0,1,134.38,153.3Z"/><path class="cls-1" d="M409.16,409V340.11s-1.27-17.27-19.63-16.73-18,16.54-18,21.27V409H304.11s-18.54,2.18-17.45,20.54,19.08,16.72,19.08,16.72h66v70.34s3.81,16.9,18.9,15.26,18.54-15.63,18.54-15.63V445.88h68s17.45-.62,16.72-18.21-15.26-18.5-15.26-18.5Z"/></g></g></svg>