<svg xmlns="http://www.w3.org/2000/svg" viewBox="0 0 786.02 784.64" width="25"><g id="Capa_2" data-name="Capa 2"><g id="Capa_1-2" data-name="Capa 1"><path fill="#fff" d="M531,274.56q-11.15,0-22.08.95V131.27S497.21-.89,243.66,0C243.66,0,24.28,4.5,0,129.47V551.15s-2.69,91.71,128.58,122.28c117.08,27.27,187,15.19,200.69,12.26A254.59,254.59,0,0,0,531,784.64c140.86,0,255-114.18,255-255S671.83,274.56,531,274.56ZM254.45,46.76C369.65,46.76,463,87.82,463,138.47s-93.39,91.7-208.59,91.7S45.86,189.11,45.86,138.47,139.25,46.76,254.45,46.76ZM45.86,218.49S114.19,272.43,254.45,276,463,218.49,463,218.49v65.22a255,255,0,0,0-123.67,77.57c-73.94,21.5-130.88,10-188.87-4.76C62.39,334,45.86,285,45.86,285Zm0,138.46c86.93,70.48,224.34,59.79,258.33,55.86a253.47,253.47,0,0,0-27.29,94.41c-14.88.25-65.24-.11-131.24-13.61-79.12-16.18-99.8-72.83-99.8-72.83Zm0,206.79V498.11C151.83,564.05,253,556,277,552.85a253.41,253.41,0,0,0,25.6,90.38C67.76,651.32,45.86,563.74,45.86,563.74ZM531,736.37c-113.71,0-205.89-92.18-205.89-205.9S417.26,324.58,531,324.58s205.9,92.18,205.9,205.89S644.69,736.37,531,736.37Z"/><path fill="#fff" d="M541.42,507.08l2.52-61.39a69.25,69.25,0,0,1,8.29,3.39c9.35,4.55,10.92,7.92,15.5,7.68,5.52-.29,9.52-5.52,10.78-7.17.61-.79,3.6-4.37,3.74-8.28.18-4.93-3.36-11.69-18.46-19.66,0,0-9.17-6.11-20-7.06l-.46-17.81a15.8,15.8,0,0,0-8.52-6.89,16.25,16.25,0,0,0-6.9-.49,15.24,15.24,0,0,0-5.26,1.43,14.22,14.22,0,0,0-7.26,8.36l.57,14.3c-2.42.56-34,8.37-44.07,37.44a55.45,55.45,0,0,0,.05,35.35c9.12,27.06,35.68,36.19,39,37.25L510.28,605s-2.29,4.33-19.6-6-24-7.54-28-.83S455.1,613.83,473.31,624s30.68,11.06,34.56,10.64l.5,16.64s1.45,8.58,15.31,10.88,14.81-11.34,14.81-11.34l0-16.27s37.05-3.48,51.06-45.58S579.43,526.53,541.42,507.08ZM512.4,494s-15.65-8.73-16-23.3,13.79-22.78,16.88-23.77Zm51,76.38a42.08,42.08,0,0,1-10.14,23.29,41.14,41.14,0,0,1-13.49,10l.78-64.87c2.65,1.1,19.55,8.36,22.57,23.81A25.53,25.53,0,0,1,563.43,570.39Z"/></g></g></svg>