<svg xmlns="http://www.w3.org/2000/svg" viewBox="0 0 550.09 658.35" width="18">
<g id="Capa_2" data-name="Capa 2"><g id="Capa_1-2" data-name="Capa 1">
    <rect fill="#fff" x="198.4" y="209.65" width="284.95" height="21.64" rx="10.82"/>
    <rect fill="#fff" x="133.03" y="209.65" width="43.73" height="21.64" rx="10.82"/>
    <rect fill="#fff" x="198.4" y="274.64" width="284.95" height="21.64" rx="10.82"/>
    <rect fill="#fff" x="133.03" y="274.64" width="43.73" height="21.64" rx="10.82"/>
    <rect fill="#fff" x="198.4" y="339.62" width="284.95" height="21.64" rx="10.82"/>
    <rect fill="#fff" x="133.03" y="339.62" width="43.73" height="21.64" rx="10.82"/>
    <rect fill="#fff" x="198.4" y="406.44" width="284.95" height="21.64" rx="10.82"/>
    <rect fill="#fff" x="133.03" y="406.44" width="43.73" height="21.64" rx="10.82"/>
    <rect fill="#fff" x="198.4" y="471.44" width="284.95" height="21.64" rx="10.82"/>
    <rect fill="#fff" x="133.03" y="471.44" width="43.73" height="21.64" rx="10.82"/>
    <path fill="#fff" d="M210.13,99.4H143.39A10.36,10.36,0,0,0,133,109.76v66.75a10.36,10.36,0,0,0,10.36,10.36h66.74a10.36,10.36,0,0,0,10.36-10.36V109.76A10.36,10.36,0,0,0,210.13,99.4ZM198.4,163H154.89v-43.5H198.4Z"/><path fill="#fff" d="M390.22,1.1,92,0H77.41S67.66-1.17,67.66,16.2v27H14.78S2,44.09.61,56s0,585.59,0,585.59-2.29,16.73,12.8,16.73H475.57s8.69,2,7.77-18.1c-.61-13.5-.4-34.62-.19-47.05l51.7,0s15.24-1.83,15.24-18.59V161Zm5.66,37.35L513.82,154.56H395.88Zm66.44,598.09H22.55v-571H67.66V579.39S66,590,80.61,592.56v.59H94.24c44.06.17,254.75.07,368.08,0Zm65.82-65.68H88.07V21.69H374.85s-.61,127.39,0,140.49,11,13.41,11,13.41H528.14Z"/></g></g></svg>