<svg xmlns="http://www.w3.org/2000/svg" viewBox="0 0 441.35 491.7" width="20">
<g id="Capa_2" data-name="Capa 2">
    <g id="Capa_1-2" data-name="Capa 1">
        <path fill="#fff" d="M411.54,0H124.3A29.84,29.84,0,0,0,94.49,29.81V96.53a130.3,130.3,0,0,0,0,250.57V461.88A29.85,29.85,0,0,0,124.3,491.7H359a10.51,10.51,0,0,0,7.43-3.08l71.82-71.82a10.49,10.49,0,0,0,3.07-7.42V29.81A29.84,29.84,0,0,0,411.54,0ZM124.3,21H411.54a8.82,8.82,0,0,1,8.81,8.81V61.5H115.49V29.81A8.82,8.82,0,0,1,124.3,21ZM21,221.81A109.29,109.29,0,1,1,130.29,331.1,109.42,109.42,0,0,1,21,221.81Zm94.49,240.07V351.26a131.59,131.59,0,0,0,14.8.84,130,130,0,0,0,98.2-44.75h64.33a10.5,10.5,0,1,0,0-21H243.44a129.38,129.38,0,0,0,16.65-53.24h32.73a10.5,10.5,0,1,0,0-21h-32.6a129.3,129.3,0,0,0-15.89-53.24h48.49a10.5,10.5,0,0,0,0-21h-63a130.07,130.07,0,0,0-99.56-46.35,131.45,131.45,0,0,0-14.8.85V82.5H420.35V398.87h-42a29.85,29.85,0,0,0-29.81,29.81v42H124.3A8.83,8.83,0,0,1,115.49,461.88Zm254-6V428.68a8.83,8.83,0,0,1,8.82-8.81h27.16Z"/>
        <path fill="#fff" d="M334.08,158.87H369a10.5,10.5,0,0,0,0-21H334.08a10.5,10.5,0,0,0,0,21Z"/>
        <path fill="#fff" d="M334.08,233.11H369a10.5,10.5,0,0,0,0-21H334.08a10.5,10.5,0,0,0,0,21Z"/>
        <path fill="#fff" d="M334.08,307.35H369a10.5,10.5,0,0,0,0-21H334.08a10.5,10.5,0,0,0,0,21Z"/>
        <path fill="#fff" d="M369,381.59a10.5,10.5,0,0,0,0-21H270.72a10.5,10.5,0,0,0,0,21Z"/>
        <path fill="#fff" d="M211.81,168.85,199,156a18.26,18.26,0,0,0-25.83,0L106,223.23,87.41,204.65a18.26,18.26,0,0,0-25.83,0L48.77,217.46a18.29,18.29,0,0,0,0,25.83l44.3,44.3A18.13,18.13,0,0,0,106,292.94h0a18.15,18.15,0,0,0,12.92-5.35l92.91-92.91A18.29,18.29,0,0,0,211.81,168.85ZM106,270.81,65.55,230.38l8.94-8.94L98.56,245.5a10.5,10.5,0,0,0,14.85,0l72.68-72.68,8.94,8.94Z"/></g></g></svg>