<svg xmlns="http://www.w3.org/2000/svg" viewBox="0 0 480.81 478.81" width="18">
<g id="Capa_2" data-name="Capa 2">
    <g id="Capa_1-2" data-name="Capa 1">
        <path fill="#fff" d="M467.35,381.85c-16.32-43-32.4-70.56-60-97.2-21.87-21.11-42.37-32.57-50-36.42a151.92,151.92,0,1,0-234.84.17,221.72,221.72,0,0,0-51.69,38.41c-31.2,31.2-46.8,58.08-60.24,98.4S.31,461.53.31,461.53s-1,15.6,20.88,16.56S42.79,457,42.79,457a404.87,404.87,0,0,1,7.44-52.56c10.08-38.88,41.28-75.84,41.28-75.84,35.21-35,58.65-45.59,66.84-48.46a152,152,0,0,0,163,.08c10.36,3.13,45.55,16.56,77.84,61.58,38.4,53.52,36.72,100.56,37.44,114.48s8.88,22.32,23.76,22.56,19.44-13.2,19.92-21.36S483.67,424.81,467.35,381.85ZM240.51,262.21A109.87,109.87,0,1,1,350.38,152.34,109.87,109.87,0,0,1,240.51,262.21Z"/></g></g></svg>