<svg xmlns="http://www.w3.org/2000/svg" viewBox="0 0 453.32 437.87" width="18">
<g id="Capa_2" data-name="Capa 2">
    <g id="Capa_1-2" data-name="Capa 1">
        <path fill="#fff" d="M67.21,293.8a210,210,0,0,1,2.21-112,208.11,208.11,0,0,1,14-34.93c4-7.79,6.72-13.54,4.46-16.25-2.72-3.25-9.83,1.55-21.27,1.95-14.36.51-25.44-6.27-31.33-9.87-5-3.08-17.25-11.37-24.7-26.32C.69,76.48.32,47.67,17.46,25.54c19-24.5,51.12-30,74.59-22.29a67.62,67.62,0,0,1,31.67,22.81c7.51,10,11.31,21,12.21,28.6.64,5.41,1,8.11,0,11.16-1.26,4-3.86,7-2.55,10.1a5,5,0,0,0,1.89,2.28c4.46,2.53,16.48-8.6,22.9-13.14C169.82,56.83,179.29,53,194.07,47a203.83,203.83,0,0,1,57.38-13.27,211.8,211.8,0,0,1,42,.59A207.52,207.52,0,0,1,374.16,61a325.74,325.74,0,0,0-47.47-7.91c-20.93-1.92-38.27-3.52-60.83.84a168,168,0,0,0-87.05,46.65,167.64,167.64,0,0,0-47.3,96.05c-1.38,10.23-3.53,27.26.47,48.2,4.18,21.86,14.56,45.34,14.56,45.34l-10.17,4.54a129.3,129.3,0,0,1-14.2,4.35c-8.32,2-14.22,2.59-24.52,3.52-19.89,1.81-23.71.48-26.4-2A14.69,14.69,0,0,1,67.21,293.8Z"/><path fill="#fff" d="M166.42,170c-2.88-2,5.73-22.3,17.59-38.95,6.22-8.73,18.32-25.36,40.7-38.94A128.08,128.08,0,0,1,356,90.25a117.61,117.61,0,0,0-13.16-2.82s-1.49-.24-3-.45c-28.36-3.89-49.58,1.61-49.58,1.61a111.22,111.22,0,0,0-35.93,16.87,96.44,96.44,0,0,0-16.07,14c-6,6.55-10.36,11.32-14.45,18.88-2.62,4.84-3.85,8.48-8.14,11.35-2.14,1.43-3.21,1.45-9.86,3.43a164.42,164.42,0,0,0-15.72,5.29,151,151,0,0,0-14,6.79C168.37,169.26,167.22,170.51,166.42,170Z"/><path fill="#fff" d="M47.6,260.07C10.74,284.46-6.76,320.39,2.4,346.8,7.56,361.68,20,370.19,23.57,372.46c15.17,9.65,34.73,11.71,85.56-1.49,65-16.88,110.1-40.22,120.51-45.7a547.49,547.49,0,0,0,71.47-44.81,511.52,511.52,0,0,0,67.49-60,488,488,0,0,0,56.18-72.89c-11.62,12.48-22.38,23-31.59,31.51-10.34,9.58-19.4,17.29-26.13,22.84-3,2.5-10.69,8.76-21,16.52-3.93,3-3.46,2.54-31,21.94,2.54-1.79,3.29-2.35-22.62,14-5.84,3.7-9.7,6.2-11.58,4.85-2.82-2,.62-11.23,1.74-14.08,0,0,1.51-8.07.26-21.17-2-21.2-18.61-37.23-19.91-38.45-18.07-17-39.6-17.74-43.94-17.8-5.18-.07-27.09.26-45.24,17.39-15.15,14.31-18.64,31.8-19.57,39.27-.88,7-2,25.13,9.39,43A64.73,64.73,0,0,0,190.58,291a40.3,40.3,0,0,0,6.51,2.69c3.59,1.15,4.95,1,5.12,1.57.46,1.49-9.1,7.28-34.53,16-21.14,7.28-84.37,29-108.28,12.14a58.65,58.65,0,0,1-13.63-14.05A45.28,45.28,0,0,1,39,293.46C35.85,277.18,45.14,263.48,47.6,260.07Z"/><path fill="#fff" d="M276.41,379.18c-2.33,1.39-5.86,3.5-10.17,6-12.66,7.45-19.4,11.19-26.79,15.46-21.52,12.44-32.29,18.69-31.73,21.7.91,5,15.92,6.16,27.74,7.09A199.43,199.43,0,0,0,280,428.08c19.37-2.93,39.13-5.93,62.89-17,31.17-14.54,50.05-34.06,59.8-44.33,10.88-11.46,31.41-33.88,40.51-65.35.39-1.35.67-2.45,1.12-4.23,8.54-33.27,9.88-58.86,8.61-59.06s-.84,29.93-19.38,62.44a161.94,161.94,0,0,1-31.28,38.3,163.65,163.65,0,0,1-33.7,23.69,157.58,157.58,0,0,1-47,15.83A155.65,155.65,0,0,1,276.41,379.18Z"/><path d="M76.45,392.18c-6.52,4.28-5.83,15.75-5.64,19,.15,2.57,1.08,12.81,9,19.95,4.64,4.2,11.43,7.11,26.91,6.75a127.86,127.86,0,0,0,46.94-10.33l1.16-.51c34.7-15.61,67.29-37.27,67.29-37.27,17-11.3,28.19-20.31,46.11-34.71,20-16.1,27-23.19,29.47-25.68,3.79-3.88,5.16-5.55,22.19-24,9-9.72,11.9-12.85,13.61-14.72,8.49-9.27,20.34-24.1,34.5-48.16a252.72,252.72,0,0,1-20,24.64c-10.22,11.06-19.12,18.7-31.85,29.58-10.81,9.24-19.33,15.79-24.91,20-10.93,8.19-22.27,16.73-37.13,26.09-13.35,8.41-25.21,14.38-48.93,26.32-37,18.62-49,22.69-61.59,25.31a166.59,166.59,0,0,1-21.12,3,145.19,145.19,0,0,1-19.14-2C87.14,392.58,81.59,388.8,76.45,392.18Z"/><path d="M314.81,348.15A130.65,130.65,0,0,0,339,345.5c10.22-2.1,28.25-6,46.26-19.29,20.27-15,29.35-33.61,34.46-44.09a139,139,0,0,0,10.06-29c2.1-9.17,3.12-18,2.39-18.13s-2.07,7-6.7,16.7a102.83,102.83,0,0,1-9.56,15.89,124.2,124.2,0,0,1-18,20.34A117.63,117.63,0,0,1,366,308.41c-3.95,1.71-7.46,3-10.27,3.9Z"/></g></g></svg>