<svg xmlns="http://www.w3.org/2000/svg" viewBox="0 0 496.55 512" width="20">
<g id="Capa_2" data-name="Capa 2">
    <g id="Capa_1-2" data-name="Capa 1">
        <path fill="#fff" d="M489.82,31.26,187.71,0a7.57,7.57,0,0,0-8.23,6.69l-6.54,63.36L6.49,92.64a7.49,7.49,0,0,0-6.42,8.43L51.56,481.54A7.55,7.55,0,0,0,60,488l43-5.82V504.5a7.5,7.5,0,0,0,7.5,7.5h241a7.57,7.57,0,0,0,5.3-2.2l62.68-62.63a7.59,7.59,0,0,0,2.2-5.3V425.28l27.11,2.8a7.54,7.54,0,0,0,8.23-6.69l3.7-35.78,7.89-76.48L496.51,39.49A7.51,7.51,0,0,0,489.82,31.26Zm-379.3,81.8a7.5,7.5,0,0,0-7.5,7.5V467l-37.61,5.09L15.94,106.49,302,67.74l6.13,45.32ZM359.05,486.4v-37h37.06ZM406.73,417v17.39H351.55a7.5,7.5,0,0,0-7.5,7.5V497H118V218.8a7.94,7.94,0,0,0,0-2.53V179.14a8.15,8.15,0,0,0,0-2.61V128.06H406.73Zm47.12-110.45-.21,2.1L447,372.81h0l-4.09,39.58-21.19-2.19V120.56a7.5,7.5,0,0,0-7.5-7.5H323.31L315.9,58.3a7.58,7.58,0,0,0-8.44-6.43L188.23,68l5.4-52.29L480.82,45.41Z"/></g></g></svg>