<svg xmlns="http://www.w3.org/2000/svg" viewBox="0 0 526.19 693.18" width="15">
<g id="Capa_2" data-name="Capa 2"><g id="Capa_1-2" data-name="Capa 1">
    <path  fill="#fff" d="M136.21,242.5l-15.64-15.64s-16.38-7-25.59,7.82,3.32,24.76,3.32,24.76l25,25s11.78,15.46,28.34,0,62.21-64.05,62.21-64.05,11.42-12.52-4.78-28c0,0-13.62-9.2-28.35,4.42S136.21,242.5,136.21,242.5Z"/>
    <rect fill="#fff" x="249.96" y="229.99" width="185.53" height="40.86" rx="20.43"/>
    <path fill="#fff" d="M136.21,387.83l-15.64-15.64s-16.38-7-25.59,7.82,3.32,24.76,3.32,24.76l25,25s11.78,15.46,28.34,0,62.21-64.05,62.21-64.05,11.42-12.52-4.78-28c0,0-13.62-9.2-28.35,4.42S136.21,387.83,136.21,387.83Z"/><rect fill="#fff" x="249.96" y="367.65" width="185.53" height="40.86" rx="20.43"/><path fill="#fff" d="M136.21,524.18l-15.64-15.65s-16.38-7-25.59,7.83,3.32,24.75,3.32,24.75l25,25s11.78,15.46,28.34,0,62.21-64.05,62.21-64.05,11.42-12.51-4.78-28c0,0-13.62-9.21-28.35,4.41S136.21,524.18,136.21,524.18Z"/><rect fill="#fff" x="249.96" y="501.62" width="185.53" height="40.86" rx="20.43"/><path fill="#fff" d="M508,65.44C487.39,43,474.87,41.88,417.82,41.88c0,0,10.3-41.87-42.7-41.87H142.84S115.6-1.19,109,27.53V42.62l-46.75-.74S1.85,46.67,0,109.61V616.14S-2.57,686.38,69.58,693H455.73s21,3.34,46.75-22.06S526,623.87,526,623.87l.05-510.94S528.62,87.9,508,65.44ZM148.36,40H377.69v42.7H148.36Zm338.3,83.56-.74,455,.73,37.55c.74,37.54-43.43,36.81-43.43,36.81s-336.46-1.48-368.51,0S40.5,618.34,40.5,618.34,42,156,40.5,120.66s28-37.92,28-37.92H109c-3.68,37.18,31.66,38.65,31.66,38.65s205.41,2.21,245.16,0,34.6-38.65,34.6-38.65h39C491.07,87.53,486.66,123.6,486.66,123.6Z"/></g></g></svg>