<svg xmlns="http://www.w3.org/2000/svg" viewBox="0 0 502.12 502.12" width="18">
<g id="Capa_2" data-name="Capa 2"><g id="Capa_1-2" data-name="Capa 1">
    <path fill="#fff" d="M375.07,251.31c-2-21.16-21.19-29.07-21.19-29.07L215.37,141.8s-22.76-8.63-34.53,0-12.16,22.76-12.16,22.76-.79,143.61,0,168.33,7.7,25.85,18.2,31.83c11.18,6.38,24.57-1.22,24.57-1.22L358.2,278.74S377,272.47,375.07,251.31ZM350.51,253a7.29,7.29,0,0,1-2.43,2.22l-129,74.43L210,335.15c-9.13,5.49-8,5.26-11.59,6s-4.11-3.5-4.11-3.5V164.27c0-4.71,7-2.36,7-2.36l148.41,85.92a3.32,3.32,0,0,1,1.51,1.75A3.91,3.91,0,0,1,350.51,253Z"/><path fill="#fff" d="M251.06,0C112.4,0,0,112.4,0,251.06S112.4,502.12,251.06,502.12s251.06-112.4,251.06-251.06S389.72,0,251.06,0Zm-.56,477.45c-125,0-226.39-101.36-226.39-226.39S125.47,24.67,250.5,24.67,476.89,126,476.89,251.06,375.53,477.45,250.5,477.45Z"/></g></g></svg>